<svg width="111" height="144" viewBox="0 0 111 144" fill="none" xmlns="http://www.w3.org/2000/svg">
<path d="M37.4184 58.2049C41.2372 64.8485 42.6877 73.0305 48.8754 73.8958C54.5177 74.6848 56.5844 69.32 58.2928 63.4984C59.8118 58.3223 59.2389 54.3683 57.6829 48.4273C54.3246 35.6049 45.8366 29.9428 35.5449 23.2562C32.0404 20.9793 27.3048 19.1535 23.5077 17.9114C21.6204 17.294 20.2482 19.5413 21.531 21.0571C23.2729 23.1152 25.1761 25.5046 26.5385 27.6018C33.4375 38.2217 31.0825 47.1822 37.4184 58.2049Z" fill="#369324"/>
<path d="M51.4644 49.4412C49.5835 56.8696 44.9312 63.7549 48.7727 68.6824C52.2756 73.1755 57.4931 70.761 62.7713 67.7692C67.4642 65.1092 69.8043 61.871 72.8213 56.5217C79.3328 44.9764 77.1776 35.0035 74.44 23.0395C73.5078 18.9656 71.3776 14.3589 69.5151 10.8245C68.5894 9.06778 66.0401 9.72674 65.9065 11.708C65.7251 14.3981 65.4291 17.4385 64.948 19.8927C62.512 32.3203 54.5852 37.1162 51.4644 49.4412Z" fill="#369324"/>
<path d="M36.2274 82.5876C42.4857 87.0095 47.2423 93.8231 53.2203 92.0063C58.6713 90.3496 58.2905 84.6131 57.3926 78.6128C56.5942 73.2778 54.4118 69.9313 50.5018 65.1953C42.0632 54.9737 31.9812 53.4057 19.8319 51.6666C15.6948 51.0744 10.6305 51.4091 6.66314 51.8788C4.69119 52.1123 4.3912 54.7283 6.19245 55.5641C8.63824 56.699 11.3697 58.0666 13.4877 59.3965C24.2128 66.1309 25.8439 75.2509 36.2274 82.5876Z" fill="#43AC2F"/>
<path d="M58.0866 52.6799C52.376 57.7895 44.6705 60.9 45.103 67.133C45.4975 72.8166 51.1736 73.7296 57.2226 74.1976C62.6009 74.6138 66.3511 73.2359 71.8421 70.4854C83.6934 64.549 87.4785 55.0739 91.8932 43.6222C93.3964 39.7227 94.2039 34.712 94.6342 30.7402C94.8481 28.766 92.3657 27.888 91.1478 29.4564C89.4942 31.5861 87.5499 33.9421 85.7796 35.7087C76.8152 44.654 67.5615 44.2022 58.0866 52.6799Z" fill="#43AC2F"/>
<path d="M40.6249 45.6234C39.4531 53.1961 35.471 60.4895 39.7603 65.0327C43.6713 69.1753 48.6379 66.2794 53.6102 62.8031C58.0313 59.7122 60.0555 56.2677 62.5545 50.6576C67.9478 38.5496 64.8614 28.8244 61.0074 17.1721C59.695 13.2043 57.1398 8.81909 54.9522 5.47614C53.8649 3.81456 51.3892 4.71106 51.4431 6.69606C51.5162 9.39135 51.5083 12.446 51.2609 14.9347C50.0081 27.5366 42.569 33.059 40.6249 45.6234Z" fill="#43AC2F"/>
<path d="M37.6135 80.9219C42.2876 80.4708 47.1797 82.3082 49.3007 78.0627C51.2348 74.1914 48.8291 70.7663 46.0767 67.4427C43.6294 64.4876 41.2993 63.5054 37.6135 62.5412C29.6586 60.46 24.2842 64.695 17.8662 69.8935C16.0003 71.4048 14.077 73.693 12.5007 75.7942C11.3348 77.3482 12.9762 79.3651 14.8368 78.8059C15.8796 78.4925 16.9308 78.2217 17.8662 78.0627C25.549 76.7568 29.8585 81.6705 37.6135 80.9219Z" fill="#65DA4E"/>
<path d="M45.1261 72.9005C51.5182 77.1267 56.4833 83.7899 62.4022 81.789C67.7993 79.9644 67.2413 74.2425 66.1582 68.2729C65.1951 62.9651 62.9102 59.6877 58.8556 55.075C50.1048 45.1193 39.9791 43.864 27.7818 42.5016C23.6284 42.0376 18.5769 42.5289 14.6259 43.1211C12.6622 43.4155 12.4432 46.0394 14.2695 46.8192C16.7492 47.8779 19.5217 49.1603 21.6798 50.424C32.6081 56.8234 34.5206 65.8886 45.1261 72.9005Z" fill="#65DA4E"/>
<path d="M71.754 82.3006C65.0856 86.0761 59.6804 92.3911 53.9001 89.9697C48.6294 87.7618 49.5687 82.0763 51.049 76.1803C52.3652 70.9379 54.8667 67.8207 59.2255 63.4927C68.6327 54.1518 78.8333 53.6132 91.1108 53.1143C95.3009 52.944 100.328 53.7977 104.24 54.6722C106.177 55.1053 106.211 57.7374 104.335 58.3874C101.784 59.2718 98.9231 60.3601 96.679 61.4734C85.3335 67.1019 82.8179 76.0364 71.754 82.3006Z" fill="#65DA4E"/>
<path d="M35.9531 86.1189H79.5678L76.731 101.572C75.0787 110.572 67.2338 117.108 58.0831 117.108C49.2113 117.108 41.5258 110.956 39.5835 102.299L35.9531 86.1189Z" fill="#9800CF"/>
<mask id="mask0" mask-type="alpha" maskUnits="userSpaceOnUse" x="44" y="81" width="62" height="63">
<rect width="48.4296" height="38.5665" transform="matrix(0.649915 -0.760007 0.75967 0.650309 44.8024 118.499)" fill="black" fill-opacity="0.1"/>
</mask>
<g mask="url(#mask0)">
<path d="M35.9531 86.1189H79.5678L76.731 101.572C75.0787 110.572 67.2338 117.108 58.0831 117.108C49.2113 117.108 41.5258 110.956 39.5835 102.299L35.9531 86.1189Z" fill="black"/>
</g>
<rect x="32.1605" y="77.8973" width="50.5678" height="8.22158" rx="4.11079" fill="#9800CF"/>
<g filter="url(#filter0_b)">
<rect x="43.5382" y="83.5891" width="36.0295" height="5.05944" rx="2.52972" fill="#7501AD"/>
</g>
<rect x="32.1605" y="76" width="17.6987" height="3.79457" rx="1.89729" fill="#D843FF"/>
<path d="M35.321 79.5147C35.321 77.5736 33.6338 75.9271 31.9832 76.9485C30.9814 77.5684 30.1738 78.4549 29.652 79.5078C29.1302 80.5607 28.9148 81.7379 29.0304 82.9062C29.0782 83.3896 29.1819 83.8635 29.3378 84.319C29.7056 85.393 31.0351 85.5621 31.9375 84.8732L32.6209 84.3515C33.1524 83.9457 33.2088 83.1689 33.143 82.5035C33.103 82.0989 33.1775 81.6914 33.3582 81.3268C33.5389 80.9623 33.8185 80.6553 34.1653 80.4407C34.5122 80.2261 34.9125 80.1123 35.321 80.1123V79.5147Z" fill="#D843FF"/>
<ellipse cx="45.0568" cy="65.5892" rx="5.05678" ry="5.05943" fill="#99F253"/>
<ellipse cx="65.916" cy="64.9567" rx="5.05678" ry="5.05943" fill="#99F253"/>
<ellipse cx="45.6889" cy="62.427" rx="4.42468" ry="4.427" fill="#06160C"/>
<ellipse cx="66.5481" cy="62.427" rx="4.42468" ry="4.427" fill="#06160C"/>
<ellipse cx="46.321" cy="61.1621" rx="1.89629" ry="1.89729" fill="#6200C7"/>
<ellipse cx="67.1802" cy="61.1621" rx="1.89629" ry="1.89729" fill="#6200C7"/>
<path d="M63.5457 72.8984C60.1247 77.901 52.7444 77.901 49.3233 72.8984C48.8541 72.2122 49.3454 71.281 50.1766 71.281H62.6924C63.5236 71.281 64.015 72.2122 63.5457 72.8984Z" fill="#99F253"/>
<path d="M63.5457 71.6335C60.1247 76.6362 52.7444 76.6362 49.3233 71.6335C48.8541 70.9474 49.3454 70.0162 50.1766 70.0162H62.6924C63.5236 70.0162 64.015 70.9474 63.5457 71.6335Z" fill="#06160C"/>
<rect x="54.5382" y="70.6486" width="3.79258" height="1.89729" rx="0.948643" fill="#EEECEC"/>
<defs>
<filter id="filter0_b" x="39.5382" y="79.5891" width="44.0295" height="13.0594" filterUnits="userSpaceOnUse" color-interpolation-filters="sRGB">
<feFlood flood-opacity="0" result="BackgroundImageFix"/>
<feGaussianBlur in="BackgroundImage" stdDeviation="2"/>
<feComposite in2="SourceAlpha" operator="in" result="effect1_backgroundBlur"/>
<feBlend mode="normal" in="SourceGraphic" in2="effect1_backgroundBlur" result="shape"/>
</filter>
</defs>
</svg>
