<svg width="81" height="146" viewBox="0 0 81 146" fill="none" xmlns="http://www.w3.org/2000/svg">
<path d="M14.0907 48.3364L30.8267 15.5612C32.9935 11.3177 39.3049 12.2237 40.1921 16.9055L47.1458 53.6016C47.2028 53.9024 47.1916 54.2077 47.0985 54.4994C46.187 57.3576 40.4986 73.0841 26.3253 70.7659C11.882 68.4035 13.5813 51.3837 13.906 48.9135C13.933 48.7081 13.9965 48.5209 14.0907 48.3364Z" fill="#369324"/>
<path d="M27.712 49.5297L47.1076 29.3262C50.314 25.9861 55.9461 28.4255 55.7064 33.0506L54.2312 61.5152C54.2141 61.8464 54.1198 62.1612 53.9335 62.4356C52.4072 64.6832 44.5647 75.0951 33.3701 69.9661C21.9331 64.7261 26.4821 52.1922 27.3473 50.0791C27.4323 49.8715 27.5566 49.6915 27.712 49.5297Z" fill="#369324"/>
<path d="M25.492 58.3636L40.5197 40.6353C43.4007 37.2365 48.9531 39.0215 49.3163 43.4633L51.2505 67.1181C51.2803 67.4827 51.2113 67.8463 51.0269 68.1622C49.7317 70.3805 43.7588 79.2684 33.0509 75.5573C22.0676 71.7509 24.5427 61.08 25.1412 59.0021C25.2096 58.7645 25.3322 58.5521 25.492 58.3636Z" fill="#43AC2F"/>
<path d="M12.4697 65.5065L14.2372 36.1041C14.4973 31.7769 19.7634 29.8066 22.7976 32.9013L43.887 54.4104C44.1601 54.689 44.3453 55.0349 44.395 55.422C44.7594 58.2556 45.5427 70.6125 32.3773 75.186C18.8966 79.869 13.5011 68.5021 12.589 66.2751C12.489 66.0312 12.4539 65.7696 12.4697 65.5065Z" fill="#43AC2F"/>
<path d="M13.1507 81.9508L10.3635 75.6763C8.48776 71.4538 12.8488 67.1624 17.0374 69.1092L23.405 72.0686C23.7076 72.2093 23.9706 72.4223 24.148 72.7051C25.0819 74.1945 27.7857 79.3259 23.5986 83.2765C19.271 87.3597 14.632 83.5299 13.5324 82.5009C13.3676 82.3466 13.2423 82.1571 13.1507 81.9508Z" fill="#65DA4E"/>
<path d="M39.2933 71.8544L48.8324 66.3726C52.8372 64.0712 57.5526 67.9698 56.0485 72.3386L52.3928 82.957C52.2841 83.2726 52.1024 83.5534 51.8413 83.7613C50.2973 84.9902 44.3905 89.0754 39.0616 84.4779C33.5725 79.7423 37.7643 73.617 38.7874 72.2866C38.925 72.1076 39.0976 71.9669 39.2933 71.8544Z" fill="#65DA4E"/>
<path d="M19.3505 75.2731L17.13 52.1332C16.7043 47.697 21.8543 44.9604 25.2895 47.7974L43.5843 62.9063C43.8663 63.1392 44.0787 63.4422 44.1764 63.7948C44.8623 66.2707 47.064 76.7516 36.9385 81.8426C26.5527 87.0644 20.6344 77.8484 19.5632 75.9701C19.4407 75.7553 19.3741 75.5193 19.3505 75.2731Z" fill="#65DA4E"/>
<path d="M11.3777 88.5401H54.9925L52.1557 103.993C50.5034 112.993 42.6585 119.529 33.5077 119.529C24.636 119.529 16.9504 113.377 15.0081 104.72L11.3777 88.5401Z" fill="#9800CF"/>
<mask id="mask0" mask-type="alpha" maskUnits="userSpaceOnUse" x="20" y="84" width="61" height="62">
<rect width="48.4296" height="38.5665" transform="matrix(0.649915 -0.760007 0.75967 0.650309 20.2271 120.92)" fill="black" fill-opacity="0.1"/>
</mask>
<g mask="url(#mask0)">
<path d="M11.3777 88.5401H54.9925L52.1557 103.993C50.5034 112.993 42.6585 119.529 33.5077 119.529C24.636 119.529 16.9504 113.377 15.0081 104.72L11.3777 88.5401Z" fill="black"/>
</g>
<rect x="7.58516" y="80.3185" width="50.5678" height="8.22158" rx="4.11079" fill="#9800CF"/>
<g filter="url(#filter0_b)">
<rect x="18.9629" y="86.0103" width="36.0295" height="5.05944" rx="2.52972" fill="#7501AD"/>
</g>
<rect x="7.58516" y="78.4212" width="17.6987" height="3.79457" rx="1.89729" fill="#D843FF"/>
<path d="M10.7457 81.9358C10.7457 79.9948 9.05852 78.3483 7.40788 79.3697C6.40603 79.9896 5.59852 80.8761 5.07668 81.929C4.55485 82.9819 4.33953 84.1591 4.45508 85.3274C4.50289 85.8108 4.60654 86.2847 4.76251 86.7402C5.1303 87.8142 6.45979 87.9833 7.36216 87.2944L8.04559 86.7727C8.57708 86.3669 8.6335 85.5901 8.56768 84.9246C8.52768 84.5201 8.60223 84.1126 8.7829 83.748C8.96357 83.3835 9.24316 83.0765 9.59003 82.8619C9.93689 82.6473 10.3372 82.5335 10.7457 82.5335V81.9358Z" fill="#D843FF"/>
<ellipse cx="20.2271" cy="68.3023" rx="5.05678" ry="5.05943" fill="#99F253"/>
<ellipse cx="41.0863" cy="67.6699" rx="5.05678" ry="5.05943" fill="#99F253"/>
<ellipse cx="20.8592" cy="65.1402" rx="4.42468" ry="4.427" fill="#06160C"/>
<ellipse cx="41.7184" cy="65.1402" rx="4.42468" ry="4.427" fill="#06160C"/>
<ellipse cx="21.4913" cy="63.8753" rx="1.89629" ry="1.89729" fill="#6200C7"/>
<ellipse cx="42.3505" cy="63.8753" rx="1.89629" ry="1.89729" fill="#6200C7"/>
<path d="M38.7161 75.6116C35.295 80.6142 27.9147 80.6142 24.4936 75.6116C24.0244 74.9254 24.5157 73.9942 25.347 73.9942H37.8627C38.694 73.9942 39.1853 74.9254 38.7161 75.6116Z" fill="#99F253"/>
<path d="M38.7161 74.3467C35.295 79.3494 27.9147 79.3494 24.4936 74.3467C24.0244 73.6606 24.5157 72.7293 25.347 72.7293H37.8627C38.694 72.7293 39.1853 73.6606 38.7161 74.3467Z" fill="#06160C"/>
<rect x="29.7086" y="73.3618" width="3.79258" height="1.89729" rx="0.948643" fill="#EEECEC"/>
<defs>
<filter id="filter0_b" x="14.9629" y="82.0103" width="44.0295" height="13.0594" filterUnits="userSpaceOnUse" color-interpolation-filters="sRGB">
<feFlood flood-opacity="0" result="BackgroundImageFix"/>
<feGaussianBlur in="BackgroundImage" stdDeviation="2"/>
<feComposite in2="SourceAlpha" operator="in" result="effect1_backgroundBlur"/>
<feBlend mode="normal" in="SourceGraphic" in2="effect1_backgroundBlur" result="shape"/>
</filter>
</defs>
</svg>
