<svg width="1440" height="1024" viewBox="0 0 1440 1024" fill="none" xmlns="http://www.w3.org/2000/svg">
<g clip-path="url(#clip0)">
<rect width="1440" height="1024" fill="#79C272"/>
<rect x="93.6423" y="18.1548" width="7.69666" height="87.8452" rx="3.84833" fill="#E7C033"/>
<rect width="7.71002" height="34.57" rx="3.85501" transform="matrix(0.559365 0.828922 -0.827608 0.561306 122.253 68.0129)" fill="#E7C033"/>
<rect width="7.71002" height="28.3468" rx="3.85501" transform="matrix(0.559365 0.828922 -0.827608 0.561307 116.51 52.2157)" fill="#E7C033"/>
<rect width="7.71003" height="34.5707" rx="3.85501" transform="matrix(0.559379 -0.828912 0.827598 0.561321 68.4801 74.4038)" fill="#E7C033"/>
<rect width="7.71002" height="28.3462" rx="3.85501" transform="matrix(0.559379 -0.828912 0.827598 0.561321 73.5126 58.6748)" fill="#E7C033"/>
<rect width="7.71003" height="14.813" rx="3.85501" transform="matrix(0.559379 -0.828912 0.827598 0.561321 82.9854 43.8361)" fill="#E7C033"/>
<rect width="7.71002" height="14.813" rx="3.85501" transform="matrix(0.559379 0.828912 -0.827598 0.561321 107.086 36.5548)" fill="#E7C033"/>
<rect width="7.70012" height="62.2947" rx="3.85006" transform="matrix(0.906493 0.422221 -0.42047 0.907306 93.1931 14.8903)" fill="#E7C033"/>
<rect width="7.70012" height="62.2947" rx="3.85006" transform="matrix(0.90649 -0.422228 0.420478 0.907303 94.8264 17.2512)" fill="#E7C033"/>
<rect x="231.642" y="133.155" width="7.69666" height="87.8452" rx="3.84833" fill="#E7C033"/>
<rect width="7.71002" height="34.57" rx="3.85501" transform="matrix(0.559365 0.828922 -0.827608 0.561306 260.253 183.013)" fill="#E7C033"/>
<rect width="7.71002" height="28.3468" rx="3.85501" transform="matrix(0.559365 0.828922 -0.827608 0.561307 254.51 167.216)" fill="#E7C033"/>
<rect width="7.71003" height="34.5707" rx="3.85501" transform="matrix(0.559379 -0.828912 0.827598 0.561321 206.48 189.404)" fill="#E7C033"/>
<rect width="7.71002" height="28.3462" rx="3.85501" transform="matrix(0.559379 -0.828912 0.827598 0.561321 211.513 173.675)" fill="#E7C033"/>
<rect width="7.71003" height="14.813" rx="3.85501" transform="matrix(0.559379 -0.828912 0.827598 0.561321 220.985 158.836)" fill="#E7C033"/>
<rect width="7.71002" height="14.813" rx="3.85501" transform="matrix(0.559379 0.828912 -0.827598 0.561321 245.086 151.555)" fill="#E7C033"/>
<rect width="7.70012" height="62.2947" rx="3.85006" transform="matrix(0.906493 0.422221 -0.42047 0.907306 231.193 129.89)" fill="#E7C033"/>
<rect width="7.70012" height="62.2947" rx="3.85006" transform="matrix(0.90649 -0.422228 0.420478 0.907303 232.826 132.251)" fill="#E7C033"/>
<rect x="231.642" y="333.155" width="7.69666" height="87.8452" rx="3.84833" fill="#E7C033"/>
<rect width="7.71002" height="34.57" rx="3.85501" transform="matrix(0.559365 0.828922 -0.827608 0.561306 260.253 383.013)" fill="#E7C033"/>
<rect width="7.71002" height="28.3468" rx="3.85501" transform="matrix(0.559365 0.828922 -0.827608 0.561307 254.51 367.216)" fill="#E7C033"/>
<rect width="7.71003" height="34.5707" rx="3.85501" transform="matrix(0.559379 -0.828912 0.827598 0.561321 206.48 389.404)" fill="#E7C033"/>
<rect width="7.71002" height="28.3462" rx="3.85501" transform="matrix(0.559379 -0.828912 0.827598 0.561321 211.513 373.675)" fill="#E7C033"/>
<rect width="7.71003" height="14.813" rx="3.85501" transform="matrix(0.559379 -0.828912 0.827598 0.561321 220.985 358.836)" fill="#E7C033"/>
<rect width="7.71002" height="14.813" rx="3.85501" transform="matrix(0.559379 0.828912 -0.827598 0.561321 245.086 351.555)" fill="#E7C033"/>
<rect width="7.70012" height="62.2947" rx="3.85006" transform="matrix(0.906493 0.422221 -0.42047 0.907306 231.193 329.89)" fill="#E7C033"/>
<rect width="7.70012" height="62.2947" rx="3.85006" transform="matrix(0.90649 -0.422228 0.420478 0.907303 232.826 332.251)" fill="#E7C033"/>
<rect x="234.642" y="533.155" width="7.69666" height="87.8452" rx="3.84833" fill="#E7C033"/>
<rect width="7.71002" height="34.57" rx="3.85501" transform="matrix(0.559365 0.828922 -0.827608 0.561306 263.253 583.013)" fill="#E7C033"/>
<rect width="7.71002" height="28.3468" rx="3.85501" transform="matrix(0.559365 0.828922 -0.827608 0.561307 257.51 567.216)" fill="#E7C033"/>
<rect width="7.71003" height="34.5707" rx="3.85501" transform="matrix(0.559379 -0.828912 0.827598 0.561321 209.48 589.404)" fill="#E7C033"/>
<rect width="7.71002" height="28.3462" rx="3.85501" transform="matrix(0.559379 -0.828912 0.827598 0.561321 214.513 573.675)" fill="#E7C033"/>
<rect width="7.71003" height="14.813" rx="3.85501" transform="matrix(0.559379 -0.828912 0.827598 0.561321 223.985 558.836)" fill="#E7C033"/>
<rect width="7.71002" height="14.813" rx="3.85501" transform="matrix(0.559379 0.828912 -0.827598 0.561321 248.086 551.555)" fill="#E7C033"/>
<rect width="7.70012" height="62.2947" rx="3.85006" transform="matrix(0.906493 0.422221 -0.42047 0.907306 234.193 529.89)" fill="#E7C033"/>
<rect width="7.70012" height="62.2947" rx="3.85006" transform="matrix(0.90649 -0.422228 0.420478 0.907303 235.826 532.251)" fill="#E7C033"/>
<rect x="237.642" y="733.155" width="7.69666" height="87.8452" rx="3.84833" fill="#E7C033"/>
<rect width="7.71002" height="34.57" rx="3.85501" transform="matrix(0.559365 0.828922 -0.827608 0.561306 266.253 783.013)" fill="#E7C033"/>
<rect width="7.71002" height="28.3468" rx="3.85501" transform="matrix(0.559365 0.828922 -0.827608 0.561307 260.51 767.216)" fill="#E7C033"/>
<rect width="7.71003" height="34.5707" rx="3.85501" transform="matrix(0.559379 -0.828912 0.827598 0.561321 212.48 789.404)" fill="#E7C033"/>
<rect width="7.71002" height="28.3462" rx="3.85501" transform="matrix(0.559379 -0.828912 0.827598 0.561321 217.513 773.675)" fill="#E7C033"/>
<rect width="7.71003" height="14.813" rx="3.85501" transform="matrix(0.559379 -0.828912 0.827598 0.561321 226.985 758.836)" fill="#E7C033"/>
<rect width="7.71002" height="14.813" rx="3.85501" transform="matrix(0.559379 0.828912 -0.827598 0.561321 251.086 751.555)" fill="#E7C033"/>
<rect width="7.70012" height="62.2947" rx="3.85006" transform="matrix(0.906493 0.422221 -0.42047 0.907306 237.193 729.89)" fill="#E7C033"/>
<rect width="7.70012" height="62.2947" rx="3.85006" transform="matrix(0.90649 -0.422228 0.420478 0.907303 238.826 732.251)" fill="#E7C033"/>
<rect x="231.642" y="133.155" width="7.69666" height="87.8452" rx="3.84833" fill="#E7C033"/>
<rect width="7.71002" height="34.57" rx="3.85501" transform="matrix(0.559365 0.828922 -0.827608 0.561306 260.253 183.013)" fill="#E7C033"/>
<rect width="7.71002" height="28.3468" rx="3.85501" transform="matrix(0.559365 0.828922 -0.827608 0.561307 254.51 167.216)" fill="#E7C033"/>
<rect width="7.71003" height="34.5707" rx="3.85501" transform="matrix(0.559379 -0.828912 0.827598 0.561321 206.48 189.404)" fill="#E7C033"/>
<rect width="7.71002" height="28.3462" rx="3.85501" transform="matrix(0.559379 -0.828912 0.827598 0.561321 211.513 173.675)" fill="#E7C033"/>
<rect width="7.71003" height="14.813" rx="3.85501" transform="matrix(0.559379 -0.828912 0.827598 0.561321 220.985 158.836)" fill="#E7C033"/>
<rect width="7.71002" height="14.813" rx="3.85501" transform="matrix(0.559379 0.828912 -0.827598 0.561321 245.086 151.555)" fill="#E7C033"/>
<rect width="7.70012" height="62.2947" rx="3.85006" transform="matrix(0.906493 0.422221 -0.42047 0.907306 231.193 129.89)" fill="#E7C033"/>
<rect width="7.70012" height="62.2947" rx="3.85006" transform="matrix(0.90649 -0.422228 0.420478 0.907303 232.826 132.251)" fill="#E7C033"/>
<rect x="237.642" y="733.155" width="7.69666" height="87.8452" rx="3.84833" fill="#E7C033"/>
<rect width="7.71002" height="34.57" rx="3.85501" transform="matrix(0.559365 0.828922 -0.827608 0.561306 266.253 783.013)" fill="#E7C033"/>
<rect width="7.71002" height="28.3468" rx="3.85501" transform="matrix(0.559365 0.828922 -0.827608 0.561307 260.51 767.216)" fill="#E7C033"/>
<rect width="7.71003" height="34.5707" rx="3.85501" transform="matrix(0.559379 -0.828912 0.827598 0.561321 212.48 789.404)" fill="#E7C033"/>
<rect width="7.71002" height="28.3462" rx="3.85501" transform="matrix(0.559379 -0.828912 0.827598 0.561321 217.513 773.675)" fill="#E7C033"/>
<rect width="7.71003" height="14.813" rx="3.85501" transform="matrix(0.559379 -0.828912 0.827598 0.561321 226.985 758.836)" fill="#E7C033"/>
<rect width="7.71002" height="14.813" rx="3.85501" transform="matrix(0.559379 0.828912 -0.827598 0.561321 251.086 751.555)" fill="#E7C033"/>
<rect width="7.70012" height="62.2947" rx="3.85006" transform="matrix(0.906493 0.422221 -0.42047 0.907306 237.193 729.89)" fill="#E7C033"/>
<rect width="7.70012" height="62.2947" rx="3.85006" transform="matrix(0.90649 -0.422228 0.420478 0.907303 238.826 732.251)" fill="#E7C033"/>
<rect x="525.642" y="333.155" width="7.69666" height="87.8452" rx="3.84833" fill="#E7C033"/>
<rect width="7.71002" height="34.57" rx="3.85501" transform="matrix(0.559365 0.828922 -0.827608 0.561306 554.253 383.013)" fill="#E7C033"/>
<rect width="7.71002" height="28.3468" rx="3.85501" transform="matrix(0.559365 0.828922 -0.827608 0.561307 548.51 367.216)" fill="#E7C033"/>
<rect width="7.71003" height="34.5707" rx="3.85501" transform="matrix(0.559379 -0.828912 0.827598 0.561321 500.48 389.404)" fill="#E7C033"/>
<rect width="7.71002" height="28.3462" rx="3.85501" transform="matrix(0.559379 -0.828912 0.827598 0.561321 505.513 373.675)" fill="#E7C033"/>
<rect width="7.71003" height="14.813" rx="3.85501" transform="matrix(0.559379 -0.828912 0.827598 0.561321 514.985 358.836)" fill="#E7C033"/>
<rect width="7.71002" height="14.813" rx="3.85501" transform="matrix(0.559379 0.828912 -0.827598 0.561321 539.086 351.555)" fill="#E7C033"/>
<rect width="7.70012" height="62.2947" rx="3.85006" transform="matrix(0.906493 0.422221 -0.42047 0.907306 525.193 329.89)" fill="#E7C033"/>
<rect width="7.70012" height="62.2947" rx="3.85006" transform="matrix(0.90649 -0.422228 0.420478 0.907303 526.826 332.251)" fill="#E7C033"/>
<rect x="528.642" y="533.155" width="7.69666" height="87.8452" rx="3.84833" fill="#E7C033"/>
<rect width="7.71002" height="34.57" rx="3.85501" transform="matrix(0.559365 0.828922 -0.827608 0.561306 557.253 583.013)" fill="#E7C033"/>
<rect width="7.71002" height="28.3468" rx="3.85501" transform="matrix(0.559365 0.828922 -0.827608 0.561307 551.51 567.216)" fill="#E7C033"/>
<rect width="7.71003" height="34.5707" rx="3.85501" transform="matrix(0.559379 -0.828912 0.827598 0.561321 503.48 589.404)" fill="#E7C033"/>
<rect width="7.71002" height="28.3462" rx="3.85501" transform="matrix(0.559379 -0.828912 0.827598 0.561321 508.513 573.675)" fill="#E7C033"/>
<rect width="7.71003" height="14.813" rx="3.85501" transform="matrix(0.559379 -0.828912 0.827598 0.561321 517.985 558.836)" fill="#E7C033"/>
<rect width="7.71002" height="14.813" rx="3.85501" transform="matrix(0.559379 0.828912 -0.827598 0.561321 542.086 551.555)" fill="#E7C033"/>
<rect width="7.70012" height="62.2947" rx="3.85006" transform="matrix(0.906493 0.422221 -0.42047 0.907306 528.193 529.89)" fill="#E7C033"/>
<rect width="7.70012" height="62.2947" rx="3.85006" transform="matrix(0.90649 -0.422228 0.420478 0.907303 529.826 532.251)" fill="#E7C033"/>
<rect x="525.642" y="133.155" width="7.69666" height="87.8452" rx="3.84833" fill="#E7C033"/>
<rect width="7.71002" height="34.57" rx="3.85501" transform="matrix(0.559365 0.828922 -0.827608 0.561306 554.253 183.013)" fill="#E7C033"/>
<rect width="7.71002" height="28.3468" rx="3.85501" transform="matrix(0.559365 0.828922 -0.827608 0.561307 548.51 167.216)" fill="#E7C033"/>
<rect width="7.71003" height="34.5707" rx="3.85501" transform="matrix(0.559379 -0.828912 0.827598 0.561321 500.48 189.404)" fill="#E7C033"/>
<rect width="7.71002" height="28.3462" rx="3.85501" transform="matrix(0.559379 -0.828912 0.827598 0.561321 505.513 173.675)" fill="#E7C033"/>
<rect width="7.71003" height="14.813" rx="3.85501" transform="matrix(0.559379 -0.828912 0.827598 0.561321 514.985 158.836)" fill="#E7C033"/>
<rect width="7.71002" height="14.813" rx="3.85501" transform="matrix(0.559379 0.828912 -0.827598 0.561321 539.086 151.555)" fill="#E7C033"/>
<rect width="7.70012" height="62.2947" rx="3.85006" transform="matrix(0.906493 0.422221 -0.42047 0.907306 525.193 129.89)" fill="#E7C033"/>
<rect width="7.70012" height="62.2947" rx="3.85006" transform="matrix(0.90649 -0.422228 0.420478 0.907303 526.826 132.251)" fill="#E7C033"/>
<rect x="531.642" y="733.155" width="7.69666" height="87.8452" rx="3.84833" fill="#E7C033"/>
<rect width="7.71002" height="34.57" rx="3.85501" transform="matrix(0.559365 0.828922 -0.827608 0.561306 560.253 783.013)" fill="#E7C033"/>
<rect width="7.71002" height="28.3468" rx="3.85501" transform="matrix(0.559365 0.828922 -0.827608 0.561307 554.51 767.216)" fill="#E7C033"/>
<rect width="7.71003" height="34.5707" rx="3.85501" transform="matrix(0.559379 -0.828912 0.827598 0.561321 506.48 789.404)" fill="#E7C033"/>
<rect width="7.71002" height="28.3462" rx="3.85501" transform="matrix(0.559379 -0.828912 0.827598 0.561321 511.513 773.675)" fill="#E7C033"/>
<rect width="7.71003" height="14.813" rx="3.85501" transform="matrix(0.559379 -0.828912 0.827598 0.561321 520.985 758.836)" fill="#E7C033"/>
<rect width="7.71002" height="14.813" rx="3.85501" transform="matrix(0.559379 0.828912 -0.827598 0.561321 545.086 751.555)" fill="#E7C033"/>
<rect width="7.70012" height="62.2947" rx="3.85006" transform="matrix(0.906493 0.422221 -0.42047 0.907306 531.193 729.89)" fill="#E7C033"/>
<rect width="7.70012" height="62.2947" rx="3.85006" transform="matrix(0.90649 -0.422228 0.420478 0.907303 532.826 732.251)" fill="#E7C033"/>
<rect x="849.642" y="337.155" width="7.69666" height="87.8452" rx="3.84833" fill="#E7C033"/>
<rect width="7.71002" height="34.57" rx="3.85501" transform="matrix(0.559365 0.828922 -0.827608 0.561306 878.253 387.013)" fill="#E7C033"/>
<rect width="7.71002" height="28.3468" rx="3.85501" transform="matrix(0.559365 0.828922 -0.827608 0.561307 872.51 371.216)" fill="#E7C033"/>
<rect width="7.71003" height="34.5707" rx="3.85501" transform="matrix(0.559379 -0.828912 0.827598 0.561321 824.48 393.404)" fill="#E7C033"/>
<rect width="7.71002" height="28.3462" rx="3.85501" transform="matrix(0.559379 -0.828912 0.827598 0.561321 829.513 377.675)" fill="#E7C033"/>
<rect width="7.71003" height="14.813" rx="3.85501" transform="matrix(0.559379 -0.828912 0.827598 0.561321 838.985 362.836)" fill="#E7C033"/>
<rect width="7.71002" height="14.813" rx="3.85501" transform="matrix(0.559379 0.828912 -0.827598 0.561321 863.086 355.555)" fill="#E7C033"/>
<rect width="7.70012" height="62.2947" rx="3.85006" transform="matrix(0.906493 0.422221 -0.42047 0.907306 849.193 333.89)" fill="#E7C033"/>
<rect width="7.70012" height="62.2947" rx="3.85006" transform="matrix(0.90649 -0.422228 0.420478 0.907303 850.826 336.251)" fill="#E7C033"/>
<rect x="852.642" y="537.155" width="7.69666" height="87.8452" rx="3.84833" fill="#E7C033"/>
<rect width="7.71002" height="34.57" rx="3.85501" transform="matrix(0.559365 0.828922 -0.827608 0.561306 881.253 587.013)" fill="#E7C033"/>
<rect width="7.71002" height="28.3468" rx="3.85501" transform="matrix(0.559365 0.828922 -0.827608 0.561307 875.51 571.216)" fill="#E7C033"/>
<rect width="7.71003" height="34.5707" rx="3.85501" transform="matrix(0.559379 -0.828912 0.827598 0.561321 827.48 593.404)" fill="#E7C033"/>
<rect width="7.71002" height="28.3462" rx="3.85501" transform="matrix(0.559379 -0.828912 0.827598 0.561321 832.513 577.675)" fill="#E7C033"/>
<rect width="7.71003" height="14.813" rx="3.85501" transform="matrix(0.559379 -0.828912 0.827598 0.561321 841.985 562.836)" fill="#E7C033"/>
<rect width="7.71002" height="14.813" rx="3.85501" transform="matrix(0.559379 0.828912 -0.827598 0.561321 866.086 555.555)" fill="#E7C033"/>
<rect width="7.70012" height="62.2947" rx="3.85006" transform="matrix(0.906493 0.422221 -0.42047 0.907306 852.193 533.89)" fill="#E7C033"/>
<rect width="7.70012" height="62.2947" rx="3.85006" transform="matrix(0.90649 -0.422228 0.420478 0.907303 853.826 536.251)" fill="#E7C033"/>
<rect x="849.642" y="137.155" width="7.69666" height="87.8452" rx="3.84833" fill="#E7C033"/>
<rect width="7.71002" height="34.57" rx="3.85501" transform="matrix(0.559365 0.828922 -0.827608 0.561306 878.253 187.013)" fill="#E7C033"/>
<rect width="7.71002" height="28.3468" rx="3.85501" transform="matrix(0.559365 0.828922 -0.827608 0.561307 872.51 171.216)" fill="#E7C033"/>
<rect width="7.71003" height="34.5707" rx="3.85501" transform="matrix(0.559379 -0.828912 0.827598 0.561321 824.48 193.404)" fill="#E7C033"/>
<rect width="7.71002" height="28.3462" rx="3.85501" transform="matrix(0.559379 -0.828912 0.827598 0.561321 829.513 177.675)" fill="#E7C033"/>
<rect width="7.71003" height="14.813" rx="3.85501" transform="matrix(0.559379 -0.828912 0.827598 0.561321 838.985 162.836)" fill="#E7C033"/>
<rect width="7.71002" height="14.813" rx="3.85501" transform="matrix(0.559379 0.828912 -0.827598 0.561321 863.086 155.555)" fill="#E7C033"/>
<rect width="7.70012" height="62.2947" rx="3.85006" transform="matrix(0.906493 0.422221 -0.42047 0.907306 849.193 133.89)" fill="#E7C033"/>
<rect width="7.70012" height="62.2947" rx="3.85006" transform="matrix(0.90649 -0.422228 0.420478 0.907303 850.826 136.251)" fill="#E7C033"/>
<rect x="855.642" y="737.155" width="7.69666" height="87.8452" rx="3.84833" fill="#E7C033"/>
<rect width="7.71002" height="34.57" rx="3.85501" transform="matrix(0.559365 0.828922 -0.827608 0.561306 884.253 787.013)" fill="#E7C033"/>
<rect width="7.71002" height="28.3468" rx="3.85501" transform="matrix(0.559365 0.828922 -0.827608 0.561307 878.51 771.216)" fill="#E7C033"/>
<rect width="7.71003" height="34.5707" rx="3.85501" transform="matrix(0.559379 -0.828912 0.827598 0.561321 830.48 793.404)" fill="#E7C033"/>
<rect width="7.71002" height="28.3462" rx="3.85501" transform="matrix(0.559379 -0.828912 0.827598 0.561321 835.513 777.675)" fill="#E7C033"/>
<rect width="7.71003" height="14.813" rx="3.85501" transform="matrix(0.559379 -0.828912 0.827598 0.561321 844.985 762.836)" fill="#E7C033"/>
<rect width="7.71002" height="14.813" rx="3.85501" transform="matrix(0.559379 0.828912 -0.827598 0.561321 869.086 755.555)" fill="#E7C033"/>
<rect width="7.70012" height="62.2947" rx="3.85006" transform="matrix(0.906493 0.422221 -0.42047 0.907306 855.193 733.89)" fill="#E7C033"/>
<rect width="7.70012" height="62.2947" rx="3.85006" transform="matrix(0.90649 -0.422228 0.420478 0.907303 856.826 736.251)" fill="#E7C033"/>
<rect x="1179.64" y="337.155" width="7.69666" height="87.8452" rx="3.84833" fill="#E7C033"/>
<rect width="7.71002" height="34.57" rx="3.85501" transform="matrix(0.559365 0.828922 -0.827608 0.561306 1208.25 387.013)" fill="#E7C033"/>
<rect width="7.71002" height="28.3468" rx="3.85501" transform="matrix(0.559365 0.828922 -0.827608 0.561307 1202.51 371.216)" fill="#E7C033"/>
<rect width="7.71003" height="34.5707" rx="3.85501" transform="matrix(0.559379 -0.828912 0.827598 0.561321 1154.48 393.404)" fill="#E7C033"/>
<rect width="7.71002" height="28.3462" rx="3.85501" transform="matrix(0.559379 -0.828912 0.827598 0.561321 1159.51 377.675)" fill="#E7C033"/>
<rect width="7.71003" height="14.813" rx="3.85501" transform="matrix(0.559379 -0.828912 0.827598 0.561321 1168.99 362.836)" fill="#E7C033"/>
<rect width="7.71002" height="14.813" rx="3.85501" transform="matrix(0.559379 0.828912 -0.827598 0.561321 1193.09 355.555)" fill="#E7C033"/>
<rect width="7.70012" height="62.2947" rx="3.85006" transform="matrix(0.906493 0.422221 -0.42047 0.907306 1179.19 333.89)" fill="#E7C033"/>
<rect width="7.70012" height="62.2947" rx="3.85006" transform="matrix(0.90649 -0.422228 0.420478 0.907303 1180.83 336.251)" fill="#E7C033"/>
<rect x="1182.64" y="537.155" width="7.69666" height="87.8452" rx="3.84833" fill="#E7C033"/>
<rect width="7.71002" height="34.57" rx="3.85501" transform="matrix(0.559365 0.828922 -0.827608 0.561306 1211.25 587.013)" fill="#E7C033"/>
<rect width="7.71002" height="28.3468" rx="3.85501" transform="matrix(0.559365 0.828922 -0.827608 0.561307 1205.51 571.216)" fill="#E7C033"/>
<rect width="7.71003" height="34.5707" rx="3.85501" transform="matrix(0.559379 -0.828912 0.827598 0.561321 1157.48 593.404)" fill="#E7C033"/>
<rect width="7.71002" height="28.3462" rx="3.85501" transform="matrix(0.559379 -0.828912 0.827598 0.561321 1162.51 577.675)" fill="#E7C033"/>
<rect width="7.71003" height="14.813" rx="3.85501" transform="matrix(0.559379 -0.828912 0.827598 0.561321 1171.99 562.836)" fill="#E7C033"/>
<rect width="7.71002" height="14.813" rx="3.85501" transform="matrix(0.559379 0.828912 -0.827598 0.561321 1196.09 555.555)" fill="#E7C033"/>
<rect width="7.70012" height="62.2947" rx="3.85006" transform="matrix(0.906493 0.422221 -0.42047 0.907306 1182.19 533.89)" fill="#E7C033"/>
<rect width="7.70012" height="62.2947" rx="3.85006" transform="matrix(0.90649 -0.422228 0.420478 0.907303 1183.83 536.251)" fill="#E7C033"/>
<rect x="1179.64" y="137.155" width="7.69666" height="87.8452" rx="3.84833" fill="#E7C033"/>
<rect width="7.71002" height="34.57" rx="3.85501" transform="matrix(0.559365 0.828922 -0.827608 0.561306 1208.25 187.013)" fill="#E7C033"/>
<rect width="7.71002" height="28.3468" rx="3.85501" transform="matrix(0.559365 0.828922 -0.827608 0.561307 1202.51 171.216)" fill="#E7C033"/>
<rect width="7.71003" height="34.5707" rx="3.85501" transform="matrix(0.559379 -0.828912 0.827598 0.561321 1154.48 193.404)" fill="#E7C033"/>
<rect width="7.71002" height="28.3462" rx="3.85501" transform="matrix(0.559379 -0.828912 0.827598 0.561321 1159.51 177.675)" fill="#E7C033"/>
<rect width="7.71003" height="14.813" rx="3.85501" transform="matrix(0.559379 -0.828912 0.827598 0.561321 1168.99 162.836)" fill="#E7C033"/>
<rect width="7.71002" height="14.813" rx="3.85501" transform="matrix(0.559379 0.828912 -0.827598 0.561321 1193.09 155.555)" fill="#E7C033"/>
<rect width="7.70012" height="62.2947" rx="3.85006" transform="matrix(0.906493 0.422221 -0.42047 0.907306 1179.19 133.89)" fill="#E7C033"/>
<rect width="7.70012" height="62.2947" rx="3.85006" transform="matrix(0.90649 -0.422228 0.420478 0.907303 1180.83 136.251)" fill="#E7C033"/>
<rect x="1185.64" y="737.155" width="7.69666" height="87.8452" rx="3.84833" fill="#E7C033"/>
<rect width="7.71002" height="34.57" rx="3.85501" transform="matrix(0.559365 0.828922 -0.827608 0.561306 1214.25 787.013)" fill="#E7C033"/>
<rect width="7.71002" height="28.3468" rx="3.85501" transform="matrix(0.559365 0.828922 -0.827608 0.561307 1208.51 771.216)" fill="#E7C033"/>
<rect width="7.71003" height="34.5707" rx="3.85501" transform="matrix(0.559379 -0.828912 0.827598 0.561321 1160.48 793.404)" fill="#E7C033"/>
<rect width="7.71002" height="28.3462" rx="3.85501" transform="matrix(0.559379 -0.828912 0.827598 0.561321 1165.51 777.675)" fill="#E7C033"/>
<rect width="7.71003" height="14.813" rx="3.85501" transform="matrix(0.559379 -0.828912 0.827598 0.561321 1174.99 762.836)" fill="#E7C033"/>
<rect width="7.71002" height="14.813" rx="3.85501" transform="matrix(0.559379 0.828912 -0.827598 0.561321 1199.09 755.555)" fill="#E7C033"/>
<rect width="7.70012" height="62.2947" rx="3.85006" transform="matrix(0.906493 0.422221 -0.42047 0.907306 1185.19 733.89)" fill="#E7C033"/>
<rect width="7.70012" height="62.2947" rx="3.85006" transform="matrix(0.90649 -0.422228 0.420478 0.907303 1186.83 736.251)" fill="#E7C033"/>
<rect x="96.6423" y="221.155" width="7.69666" height="87.8452" rx="3.84833" fill="#E7C033"/>
<rect width="7.71002" height="34.57" rx="3.85501" transform="matrix(0.559365 0.828922 -0.827608 0.561306 125.253 271.013)" fill="#E7C033"/>
<rect width="7.71002" height="28.3468" rx="3.85501" transform="matrix(0.559365 0.828922 -0.827608 0.561307 119.51 255.216)" fill="#E7C033"/>
<rect width="7.71003" height="34.5707" rx="3.85501" transform="matrix(0.559379 -0.828912 0.827598 0.561321 71.4801 277.404)" fill="#E7C033"/>
<rect width="7.71002" height="28.3462" rx="3.85501" transform="matrix(0.559379 -0.828912 0.827598 0.561321 76.5126 261.675)" fill="#E7C033"/>
<rect width="7.71003" height="14.813" rx="3.85501" transform="matrix(0.559379 -0.828912 0.827598 0.561321 85.9854 246.836)" fill="#E7C033"/>
<rect width="7.71002" height="14.813" rx="3.85501" transform="matrix(0.559379 0.828912 -0.827598 0.561321 110.086 239.555)" fill="#E7C033"/>
<rect width="7.70012" height="62.2947" rx="3.85006" transform="matrix(0.906493 0.422221 -0.42047 0.907306 96.1931 217.89)" fill="#E7C033"/>
<rect width="7.70012" height="62.2947" rx="3.85006" transform="matrix(0.90649 -0.422228 0.420478 0.907303 97.8264 220.251)" fill="#E7C033"/>
<rect x="96.6423" y="424.155" width="7.69666" height="87.8452" rx="3.84833" fill="#E7C033"/>
<rect width="7.71002" height="34.57" rx="3.85501" transform="matrix(0.559365 0.828922 -0.827608 0.561306 125.253 474.013)" fill="#E7C033"/>
<rect width="7.71002" height="28.3468" rx="3.85501" transform="matrix(0.559365 0.828922 -0.827608 0.561307 119.51 458.216)" fill="#E7C033"/>
<rect width="7.71003" height="34.5707" rx="3.85501" transform="matrix(0.559379 -0.828912 0.827598 0.561321 71.4801 480.404)" fill="#E7C033"/>
<rect width="7.71002" height="28.3462" rx="3.85501" transform="matrix(0.559379 -0.828912 0.827598 0.561321 76.5126 464.675)" fill="#E7C033"/>
<rect width="7.71003" height="14.813" rx="3.85501" transform="matrix(0.559379 -0.828912 0.827598 0.561321 85.9854 449.836)" fill="#E7C033"/>
<rect width="7.71002" height="14.813" rx="3.85501" transform="matrix(0.559379 0.828912 -0.827598 0.561321 110.086 442.555)" fill="#E7C033"/>
<rect width="7.70012" height="62.2947" rx="3.85006" transform="matrix(0.906493 0.422221 -0.42047 0.907306 96.1931 420.89)" fill="#E7C033"/>
<rect width="7.70012" height="62.2947" rx="3.85006" transform="matrix(0.90649 -0.422228 0.420478 0.907303 97.8264 423.251)" fill="#E7C033"/>
<rect x="93.6423" y="627.155" width="7.69666" height="87.8452" rx="3.84833" fill="#E7C033"/>
<rect width="7.71002" height="34.57" rx="3.85501" transform="matrix(0.559365 0.828922 -0.827608 0.561306 122.253 677.013)" fill="#E7C033"/>
<rect width="7.71002" height="28.3468" rx="3.85501" transform="matrix(0.559365 0.828922 -0.827608 0.561307 116.51 661.216)" fill="#E7C033"/>
<rect width="7.71003" height="34.5707" rx="3.85501" transform="matrix(0.559379 -0.828912 0.827598 0.561321 68.4801 683.404)" fill="#E7C033"/>
<rect width="7.71002" height="28.3462" rx="3.85501" transform="matrix(0.559379 -0.828912 0.827598 0.561321 73.5126 667.675)" fill="#E7C033"/>
<rect width="7.71003" height="14.813" rx="3.85501" transform="matrix(0.559379 -0.828912 0.827598 0.561321 82.9854 652.836)" fill="#E7C033"/>
<rect width="7.71002" height="14.813" rx="3.85501" transform="matrix(0.559379 0.828912 -0.827598 0.561321 107.086 645.555)" fill="#E7C033"/>
<rect width="7.70012" height="62.2947" rx="3.85006" transform="matrix(0.906493 0.422221 -0.42047 0.907306 93.1931 623.89)" fill="#E7C033"/>
<rect width="7.70012" height="62.2947" rx="3.85006" transform="matrix(0.90649 -0.422228 0.420478 0.907303 94.8264 626.251)" fill="#E7C033"/>
<rect x="93.6423" y="830.155" width="7.69666" height="87.8452" rx="3.84833" fill="#E7C033"/>
<rect width="7.71002" height="34.57" rx="3.85501" transform="matrix(0.559365 0.828922 -0.827608 0.561306 122.253 880.013)" fill="#E7C033"/>
<rect width="7.71002" height="28.3468" rx="3.85501" transform="matrix(0.559365 0.828922 -0.827608 0.561307 116.51 864.216)" fill="#E7C033"/>
<rect width="7.71003" height="34.5707" rx="3.85501" transform="matrix(0.559379 -0.828912 0.827598 0.561321 68.4801 886.404)" fill="#E7C033"/>
<rect width="7.71002" height="28.3462" rx="3.85501" transform="matrix(0.559379 -0.828912 0.827598 0.561321 73.5126 870.675)" fill="#E7C033"/>
<rect width="7.71003" height="14.813" rx="3.85501" transform="matrix(0.559379 -0.828912 0.827598 0.561321 82.9854 855.836)" fill="#E7C033"/>
<rect width="7.71002" height="14.813" rx="3.85501" transform="matrix(0.559379 0.828912 -0.827598 0.561321 107.086 848.555)" fill="#E7C033"/>
<rect width="7.70012" height="62.2947" rx="3.85006" transform="matrix(0.906493 0.422221 -0.42047 0.907306 93.1931 826.89)" fill="#E7C033"/>
<rect width="7.70012" height="62.2947" rx="3.85006" transform="matrix(0.90649 -0.422228 0.420478 0.907303 94.8264 829.251)" fill="#E7C033"/>
<rect x="381.642" y="10.1548" width="7.69666" height="87.8452" rx="3.84833" fill="#E7C033"/>
<rect width="7.71002" height="34.57" rx="3.85501" transform="matrix(0.559365 0.828922 -0.827608 0.561306 410.253 60.0129)" fill="#E7C033"/>
<rect width="7.71002" height="28.3468" rx="3.85501" transform="matrix(0.559365 0.828922 -0.827608 0.561307 404.51 44.2157)" fill="#E7C033"/>
<rect width="7.71003" height="34.5707" rx="3.85501" transform="matrix(0.559379 -0.828912 0.827598 0.561321 356.48 66.4038)" fill="#E7C033"/>
<rect width="7.71002" height="28.3462" rx="3.85501" transform="matrix(0.559379 -0.828912 0.827598 0.561321 361.513 50.6748)" fill="#E7C033"/>
<rect width="7.71003" height="14.813" rx="3.85501" transform="matrix(0.559379 -0.828912 0.827598 0.561321 370.985 35.8361)" fill="#E7C033"/>
<rect width="7.71002" height="14.813" rx="3.85501" transform="matrix(0.559379 0.828912 -0.827598 0.561321 395.086 28.5548)" fill="#E7C033"/>
<rect width="7.70012" height="62.2947" rx="3.85006" transform="matrix(0.906493 0.422221 -0.42047 0.907306 381.193 6.89029)" fill="#E7C033"/>
<rect width="7.70012" height="62.2947" rx="3.85006" transform="matrix(0.90649 -0.422228 0.420478 0.907303 382.826 9.25119)" fill="#E7C033"/>
<rect x="384.642" y="213.155" width="7.69666" height="87.8452" rx="3.84833" fill="#E7C033"/>
<rect width="7.71002" height="34.57" rx="3.85501" transform="matrix(0.559365 0.828922 -0.827608 0.561306 413.253 263.013)" fill="#E7C033"/>
<rect width="7.71002" height="28.3468" rx="3.85501" transform="matrix(0.559365 0.828922 -0.827608 0.561307 407.51 247.216)" fill="#E7C033"/>
<rect width="7.71003" height="34.5707" rx="3.85501" transform="matrix(0.559379 -0.828912 0.827598 0.561321 359.48 269.404)" fill="#E7C033"/>
<rect width="7.71002" height="28.3462" rx="3.85501" transform="matrix(0.559379 -0.828912 0.827598 0.561321 364.513 253.675)" fill="#E7C033"/>
<rect width="7.71003" height="14.813" rx="3.85501" transform="matrix(0.559379 -0.828912 0.827598 0.561321 373.985 238.836)" fill="#E7C033"/>
<rect width="7.71002" height="14.813" rx="3.85501" transform="matrix(0.559379 0.828912 -0.827598 0.561321 398.086 231.555)" fill="#E7C033"/>
<rect width="7.70012" height="62.2947" rx="3.85006" transform="matrix(0.906493 0.422221 -0.42047 0.907306 384.193 209.89)" fill="#E7C033"/>
<rect width="7.70012" height="62.2947" rx="3.85006" transform="matrix(0.90649 -0.422228 0.420478 0.907303 385.826 212.251)" fill="#E7C033"/>
<rect x="384.642" y="416.155" width="7.69666" height="87.8452" rx="3.84833" fill="#E7C033"/>
<rect width="7.71002" height="34.57" rx="3.85501" transform="matrix(0.559365 0.828922 -0.827608 0.561306 413.253 466.013)" fill="#E7C033"/>
<rect width="7.71002" height="28.3468" rx="3.85501" transform="matrix(0.559365 0.828922 -0.827608 0.561307 407.51 450.216)" fill="#E7C033"/>
<rect width="7.71003" height="34.5707" rx="3.85501" transform="matrix(0.559379 -0.828912 0.827598 0.561321 359.48 472.404)" fill="#E7C033"/>
<rect width="7.71002" height="28.3462" rx="3.85501" transform="matrix(0.559379 -0.828912 0.827598 0.561321 364.513 456.675)" fill="#E7C033"/>
<rect width="7.71003" height="14.813" rx="3.85501" transform="matrix(0.559379 -0.828912 0.827598 0.561321 373.985 441.836)" fill="#E7C033"/>
<rect width="7.71002" height="14.813" rx="3.85501" transform="matrix(0.559379 0.828912 -0.827598 0.561321 398.086 434.555)" fill="#E7C033"/>
<rect width="7.70012" height="62.2947" rx="3.85006" transform="matrix(0.906493 0.422221 -0.42047 0.907306 384.193 412.89)" fill="#E7C033"/>
<rect width="7.70012" height="62.2947" rx="3.85006" transform="matrix(0.90649 -0.422228 0.420478 0.907303 385.826 415.251)" fill="#E7C033"/>
<rect x="381.642" y="619.155" width="7.69666" height="87.8452" rx="3.84833" fill="#E7C033"/>
<rect width="7.71002" height="34.57" rx="3.85501" transform="matrix(0.559365 0.828922 -0.827608 0.561306 410.253 669.013)" fill="#E7C033"/>
<rect width="7.71002" height="28.3468" rx="3.85501" transform="matrix(0.559365 0.828922 -0.827608 0.561307 404.51 653.216)" fill="#E7C033"/>
<rect width="7.71003" height="34.5707" rx="3.85501" transform="matrix(0.559379 -0.828912 0.827598 0.561321 356.48 675.404)" fill="#E7C033"/>
<rect width="7.71002" height="28.3462" rx="3.85501" transform="matrix(0.559379 -0.828912 0.827598 0.561321 361.513 659.675)" fill="#E7C033"/>
<rect width="7.71003" height="14.813" rx="3.85501" transform="matrix(0.559379 -0.828912 0.827598 0.561321 370.985 644.836)" fill="#E7C033"/>
<rect width="7.71002" height="14.813" rx="3.85501" transform="matrix(0.559379 0.828912 -0.827598 0.561321 395.086 637.555)" fill="#E7C033"/>
<rect width="7.70012" height="62.2947" rx="3.85006" transform="matrix(0.906493 0.422221 -0.42047 0.907306 381.193 615.89)" fill="#E7C033"/>
<rect width="7.70012" height="62.2947" rx="3.85006" transform="matrix(0.90649 -0.422228 0.420478 0.907303 382.826 618.251)" fill="#E7C033"/>
<rect x="381.642" y="822.155" width="7.69666" height="87.8452" rx="3.84833" fill="#E7C033"/>
<rect width="7.71002" height="34.57" rx="3.85501" transform="matrix(0.559365 0.828922 -0.827608 0.561306 410.253 872.013)" fill="#E7C033"/>
<rect width="7.71002" height="28.3468" rx="3.85501" transform="matrix(0.559365 0.828922 -0.827608 0.561307 404.51 856.216)" fill="#E7C033"/>
<rect width="7.71003" height="34.5707" rx="3.85501" transform="matrix(0.559379 -0.828912 0.827598 0.561321 356.48 878.404)" fill="#E7C033"/>
<rect width="7.71002" height="28.3462" rx="3.85501" transform="matrix(0.559379 -0.828912 0.827598 0.561321 361.513 862.675)" fill="#E7C033"/>
<rect width="7.71003" height="14.813" rx="3.85501" transform="matrix(0.559379 -0.828912 0.827598 0.561321 370.985 847.836)" fill="#E7C033"/>
<rect width="7.71002" height="14.813" rx="3.85501" transform="matrix(0.559379 0.828912 -0.827598 0.561321 395.086 840.555)" fill="#E7C033"/>
<rect width="7.70012" height="62.2947" rx="3.85006" transform="matrix(0.906493 0.422221 -0.42047 0.907306 381.193 818.89)" fill="#E7C033"/>
<rect width="7.70012" height="62.2947" rx="3.85006" transform="matrix(0.90649 -0.422228 0.420478 0.907303 382.826 821.251)" fill="#E7C033"/>
<rect x="684.642" y="3.15482" width="7.69666" height="87.8452" rx="3.84833" fill="#E7C033"/>
<rect width="7.71002" height="34.57" rx="3.85501" transform="matrix(0.559365 0.828922 -0.827608 0.561306 713.253 53.0129)" fill="#E7C033"/>
<rect width="7.71002" height="28.3468" rx="3.85501" transform="matrix(0.559365 0.828922 -0.827608 0.561307 707.51 37.2157)" fill="#E7C033"/>
<rect width="7.71003" height="34.5707" rx="3.85501" transform="matrix(0.559379 -0.828912 0.827598 0.561321 659.48 59.4038)" fill="#E7C033"/>
<rect width="7.71002" height="28.3462" rx="3.85501" transform="matrix(0.559379 -0.828912 0.827598 0.561321 664.513 43.6748)" fill="#E7C033"/>
<rect width="7.71003" height="14.813" rx="3.85501" transform="matrix(0.559379 -0.828912 0.827598 0.561321 673.985 28.8361)" fill="#E7C033"/>
<rect width="7.71002" height="14.813" rx="3.85501" transform="matrix(0.559379 0.828912 -0.827598 0.561321 698.086 21.5548)" fill="#E7C033"/>
<rect width="7.70012" height="62.2947" rx="3.85006" transform="matrix(0.906493 0.422221 -0.42047 0.907306 684.193 -0.109741)" fill="#E7C033"/>
<rect width="7.70012" height="62.2947" rx="3.85006" transform="matrix(0.90649 -0.422228 0.420478 0.907303 685.826 2.25119)" fill="#E7C033"/>
<rect x="687.642" y="206.155" width="7.69666" height="87.8452" rx="3.84833" fill="#E7C033"/>
<rect width="7.71002" height="34.57" rx="3.85501" transform="matrix(0.559365 0.828922 -0.827608 0.561306 716.253 256.013)" fill="#E7C033"/>
<rect width="7.71002" height="28.3468" rx="3.85501" transform="matrix(0.559365 0.828922 -0.827608 0.561307 710.51 240.216)" fill="#E7C033"/>
<rect width="7.71003" height="34.5707" rx="3.85501" transform="matrix(0.559379 -0.828912 0.827598 0.561321 662.48 262.404)" fill="#E7C033"/>
<rect width="7.71002" height="28.3462" rx="3.85501" transform="matrix(0.559379 -0.828912 0.827598 0.561321 667.513 246.675)" fill="#E7C033"/>
<rect width="7.71003" height="14.813" rx="3.85501" transform="matrix(0.559379 -0.828912 0.827598 0.561321 676.985 231.836)" fill="#E7C033"/>
<rect width="7.71002" height="14.813" rx="3.85501" transform="matrix(0.559379 0.828912 -0.827598 0.561321 701.086 224.555)" fill="#E7C033"/>
<rect width="7.70012" height="62.2947" rx="3.85006" transform="matrix(0.906493 0.422221 -0.42047 0.907306 687.193 202.89)" fill="#E7C033"/>
<rect width="7.70012" height="62.2947" rx="3.85006" transform="matrix(0.90649 -0.422228 0.420478 0.907303 688.826 205.251)" fill="#E7C033"/>
<rect x="687.642" y="409.155" width="7.69666" height="87.8452" rx="3.84833" fill="#E7C033"/>
<rect width="7.71002" height="34.57" rx="3.85501" transform="matrix(0.559365 0.828922 -0.827608 0.561306 716.253 459.013)" fill="#E7C033"/>
<rect width="7.71002" height="28.3468" rx="3.85501" transform="matrix(0.559365 0.828922 -0.827608 0.561307 710.51 443.216)" fill="#E7C033"/>
<rect width="7.71003" height="34.5707" rx="3.85501" transform="matrix(0.559379 -0.828912 0.827598 0.561321 662.48 465.404)" fill="#E7C033"/>
<rect width="7.71002" height="28.3462" rx="3.85501" transform="matrix(0.559379 -0.828912 0.827598 0.561321 667.513 449.675)" fill="#E7C033"/>
<rect width="7.71003" height="14.813" rx="3.85501" transform="matrix(0.559379 -0.828912 0.827598 0.561321 676.985 434.836)" fill="#E7C033"/>
<rect width="7.71002" height="14.813" rx="3.85501" transform="matrix(0.559379 0.828912 -0.827598 0.561321 701.086 427.555)" fill="#E7C033"/>
<rect width="7.70012" height="62.2947" rx="3.85006" transform="matrix(0.906493 0.422221 -0.42047 0.907306 687.193 405.89)" fill="#E7C033"/>
<rect width="7.70012" height="62.2947" rx="3.85006" transform="matrix(0.90649 -0.422228 0.420478 0.907303 688.826 408.251)" fill="#E7C033"/>
<rect x="684.642" y="612.155" width="7.69666" height="87.8452" rx="3.84833" fill="#E7C033"/>
<rect width="7.71002" height="34.57" rx="3.85501" transform="matrix(0.559365 0.828922 -0.827608 0.561306 713.253 662.013)" fill="#E7C033"/>
<rect width="7.71002" height="28.3468" rx="3.85501" transform="matrix(0.559365 0.828922 -0.827608 0.561307 707.51 646.216)" fill="#E7C033"/>
<rect width="7.71003" height="34.5707" rx="3.85501" transform="matrix(0.559379 -0.828912 0.827598 0.561321 659.48 668.404)" fill="#E7C033"/>
<rect width="7.71002" height="28.3462" rx="3.85501" transform="matrix(0.559379 -0.828912 0.827598 0.561321 664.513 652.675)" fill="#E7C033"/>
<rect width="7.71003" height="14.813" rx="3.85501" transform="matrix(0.559379 -0.828912 0.827598 0.561321 673.985 637.836)" fill="#E7C033"/>
<rect width="7.71002" height="14.813" rx="3.85501" transform="matrix(0.559379 0.828912 -0.827598 0.561321 698.086 630.555)" fill="#E7C033"/>
<rect width="7.70012" height="62.2947" rx="3.85006" transform="matrix(0.906493 0.422221 -0.42047 0.907306 684.193 608.89)" fill="#E7C033"/>
<rect width="7.70012" height="62.2947" rx="3.85006" transform="matrix(0.90649 -0.422228 0.420478 0.907303 685.826 611.251)" fill="#E7C033"/>
<rect x="684.642" y="815.155" width="7.69666" height="87.8452" rx="3.84833" fill="#E7C033"/>
<rect width="7.71002" height="34.57" rx="3.85501" transform="matrix(0.559365 0.828922 -0.827608 0.561306 713.253 865.013)" fill="#E7C033"/>
<rect width="7.71002" height="28.3468" rx="3.85501" transform="matrix(0.559365 0.828922 -0.827608 0.561307 707.51 849.216)" fill="#E7C033"/>
<rect width="7.71003" height="34.5707" rx="3.85501" transform="matrix(0.559379 -0.828912 0.827598 0.561321 659.48 871.404)" fill="#E7C033"/>
<rect width="7.71002" height="28.3462" rx="3.85501" transform="matrix(0.559379 -0.828912 0.827598 0.561321 664.513 855.675)" fill="#E7C033"/>
<rect width="7.71003" height="14.813" rx="3.85501" transform="matrix(0.559379 -0.828912 0.827598 0.561321 673.985 840.836)" fill="#E7C033"/>
<rect width="7.71002" height="14.813" rx="3.85501" transform="matrix(0.559379 0.828912 -0.827598 0.561321 698.086 833.555)" fill="#E7C033"/>
<rect width="7.70012" height="62.2947" rx="3.85006" transform="matrix(0.906493 0.422221 -0.42047 0.907306 684.193 811.89)" fill="#E7C033"/>
<rect width="7.70012" height="62.2947" rx="3.85006" transform="matrix(0.90649 -0.422228 0.420478 0.907303 685.826 814.251)" fill="#E7C033"/>
<rect x="1026.64" y="10.1548" width="7.69666" height="87.8452" rx="3.84833" fill="#E7C033"/>
<rect width="7.71002" height="34.57" rx="3.85501" transform="matrix(0.559365 0.828922 -0.827608 0.561306 1055.25 60.0129)" fill="#E7C033"/>
<rect width="7.71002" height="28.3468" rx="3.85501" transform="matrix(0.559365 0.828922 -0.827608 0.561307 1049.51 44.2157)" fill="#E7C033"/>
<rect width="7.71003" height="34.5707" rx="3.85501" transform="matrix(0.559379 -0.828912 0.827598 0.561321 1001.48 66.4038)" fill="#E7C033"/>
<rect width="7.71002" height="28.3462" rx="3.85501" transform="matrix(0.559379 -0.828912 0.827598 0.561321 1006.51 50.6748)" fill="#E7C033"/>
<rect width="7.71003" height="14.813" rx="3.85501" transform="matrix(0.559379 -0.828912 0.827598 0.561321 1015.99 35.8361)" fill="#E7C033"/>
<rect width="7.71002" height="14.813" rx="3.85501" transform="matrix(0.559379 0.828912 -0.827598 0.561321 1040.09 28.5548)" fill="#E7C033"/>
<rect width="7.70012" height="62.2947" rx="3.85006" transform="matrix(0.906493 0.422221 -0.42047 0.907306 1026.19 6.89029)" fill="#E7C033"/>
<rect width="7.70012" height="62.2947" rx="3.85006" transform="matrix(0.90649 -0.422228 0.420478 0.907303 1027.83 9.25119)" fill="#E7C033"/>
<rect x="1029.64" y="213.155" width="7.69666" height="87.8452" rx="3.84833" fill="#E7C033"/>
<rect width="7.71002" height="34.57" rx="3.85501" transform="matrix(0.559365 0.828922 -0.827608 0.561306 1058.25 263.013)" fill="#E7C033"/>
<rect width="7.71002" height="28.3468" rx="3.85501" transform="matrix(0.559365 0.828922 -0.827608 0.561307 1052.51 247.216)" fill="#E7C033"/>
<rect width="7.71003" height="34.5707" rx="3.85501" transform="matrix(0.559379 -0.828912 0.827598 0.561321 1004.48 269.404)" fill="#E7C033"/>
<rect width="7.71002" height="28.3462" rx="3.85501" transform="matrix(0.559379 -0.828912 0.827598 0.561321 1009.51 253.675)" fill="#E7C033"/>
<rect width="7.71003" height="14.813" rx="3.85501" transform="matrix(0.559379 -0.828912 0.827598 0.561321 1018.99 238.836)" fill="#E7C033"/>
<rect width="7.71002" height="14.813" rx="3.85501" transform="matrix(0.559379 0.828912 -0.827598 0.561321 1043.09 231.555)" fill="#E7C033"/>
<rect width="7.70012" height="62.2947" rx="3.85006" transform="matrix(0.906493 0.422221 -0.42047 0.907306 1029.19 209.89)" fill="#E7C033"/>
<rect width="7.70012" height="62.2947" rx="3.85006" transform="matrix(0.90649 -0.422228 0.420478 0.907303 1030.83 212.251)" fill="#E7C033"/>
<rect x="1029.64" y="416.155" width="7.69666" height="87.8452" rx="3.84833" fill="#E7C033"/>
<rect width="7.71002" height="34.57" rx="3.85501" transform="matrix(0.559365 0.828922 -0.827608 0.561306 1058.25 466.013)" fill="#E7C033"/>
<rect width="7.71002" height="28.3468" rx="3.85501" transform="matrix(0.559365 0.828922 -0.827608 0.561307 1052.51 450.216)" fill="#E7C033"/>
<rect width="7.71003" height="34.5707" rx="3.85501" transform="matrix(0.559379 -0.828912 0.827598 0.561321 1004.48 472.404)" fill="#E7C033"/>
<rect width="7.71002" height="28.3462" rx="3.85501" transform="matrix(0.559379 -0.828912 0.827598 0.561321 1009.51 456.675)" fill="#E7C033"/>
<rect width="7.71003" height="14.813" rx="3.85501" transform="matrix(0.559379 -0.828912 0.827598 0.561321 1018.99 441.836)" fill="#E7C033"/>
<rect width="7.71002" height="14.813" rx="3.85501" transform="matrix(0.559379 0.828912 -0.827598 0.561321 1043.09 434.555)" fill="#E7C033"/>
<rect width="7.70012" height="62.2947" rx="3.85006" transform="matrix(0.906493 0.422221 -0.42047 0.907306 1029.19 412.89)" fill="#E7C033"/>
<rect width="7.70012" height="62.2947" rx="3.85006" transform="matrix(0.90649 -0.422228 0.420478 0.907303 1030.83 415.251)" fill="#E7C033"/>
<rect x="1026.64" y="619.155" width="7.69666" height="87.8452" rx="3.84833" fill="#E7C033"/>
<rect width="7.71002" height="34.57" rx="3.85501" transform="matrix(0.559365 0.828922 -0.827608 0.561306 1055.25 669.013)" fill="#E7C033"/>
<rect width="7.71002" height="28.3468" rx="3.85501" transform="matrix(0.559365 0.828922 -0.827608 0.561307 1049.51 653.216)" fill="#E7C033"/>
<rect width="7.71003" height="34.5707" rx="3.85501" transform="matrix(0.559379 -0.828912 0.827598 0.561321 1001.48 675.404)" fill="#E7C033"/>
<rect width="7.71002" height="28.3462" rx="3.85501" transform="matrix(0.559379 -0.828912 0.827598 0.561321 1006.51 659.675)" fill="#E7C033"/>
<rect width="7.71003" height="14.813" rx="3.85501" transform="matrix(0.559379 -0.828912 0.827598 0.561321 1015.99 644.836)" fill="#E7C033"/>
<rect width="7.71002" height="14.813" rx="3.85501" transform="matrix(0.559379 0.828912 -0.827598 0.561321 1040.09 637.555)" fill="#E7C033"/>
<rect width="7.70012" height="62.2947" rx="3.85006" transform="matrix(0.906493 0.422221 -0.42047 0.907306 1026.19 615.89)" fill="#E7C033"/>
<rect width="7.70012" height="62.2947" rx="3.85006" transform="matrix(0.90649 -0.422228 0.420478 0.907303 1027.83 618.251)" fill="#E7C033"/>
<rect x="1026.64" y="822.155" width="7.69666" height="87.8452" rx="3.84833" fill="#E7C033"/>
<rect width="7.71002" height="34.57" rx="3.85501" transform="matrix(0.559365 0.828922 -0.827608 0.561306 1055.25 872.013)" fill="#E7C033"/>
<rect width="7.71002" height="28.3468" rx="3.85501" transform="matrix(0.559365 0.828922 -0.827608 0.561307 1049.51 856.216)" fill="#E7C033"/>
<rect width="7.71003" height="34.5707" rx="3.85501" transform="matrix(0.559379 -0.828912 0.827598 0.561321 1001.48 878.404)" fill="#E7C033"/>
<rect width="7.71002" height="28.3462" rx="3.85501" transform="matrix(0.559379 -0.828912 0.827598 0.561321 1006.51 862.675)" fill="#E7C033"/>
<rect width="7.71003" height="14.813" rx="3.85501" transform="matrix(0.559379 -0.828912 0.827598 0.561321 1015.99 847.836)" fill="#E7C033"/>
<rect width="7.71002" height="14.813" rx="3.85501" transform="matrix(0.559379 0.828912 -0.827598 0.561321 1040.09 840.555)" fill="#E7C033"/>
<rect width="7.70012" height="62.2947" rx="3.85006" transform="matrix(0.906493 0.422221 -0.42047 0.907306 1026.19 818.89)" fill="#E7C033"/>
<rect width="7.70012" height="62.2947" rx="3.85006" transform="matrix(0.90649 -0.422228 0.420478 0.907303 1027.83 821.251)" fill="#E7C033"/>
<rect x="1311.64" y="10.1548" width="7.69666" height="87.8452" rx="3.84833" fill="#E7C033"/>
<rect width="7.71002" height="34.57" rx="3.85501" transform="matrix(0.559365 0.828922 -0.827608 0.561306 1340.25 60.0129)" fill="#E7C033"/>
<rect width="7.71002" height="28.3468" rx="3.85501" transform="matrix(0.559365 0.828922 -0.827608 0.561307 1334.51 44.2157)" fill="#E7C033"/>
<rect width="7.71003" height="34.5707" rx="3.85501" transform="matrix(0.559379 -0.828912 0.827598 0.561321 1286.48 66.4038)" fill="#E7C033"/>
<rect width="7.71002" height="28.3462" rx="3.85501" transform="matrix(0.559379 -0.828912 0.827598 0.561321 1291.51 50.6748)" fill="#E7C033"/>
<rect width="7.71003" height="14.813" rx="3.85501" transform="matrix(0.559379 -0.828912 0.827598 0.561321 1300.99 35.8361)" fill="#E7C033"/>
<rect width="7.71002" height="14.813" rx="3.85501" transform="matrix(0.559379 0.828912 -0.827598 0.561321 1325.09 28.5548)" fill="#E7C033"/>
<rect width="7.70012" height="62.2947" rx="3.85006" transform="matrix(0.906493 0.422221 -0.42047 0.907306 1311.19 6.89029)" fill="#E7C033"/>
<rect width="7.70012" height="62.2947" rx="3.85006" transform="matrix(0.90649 -0.422228 0.420478 0.907303 1312.83 9.25119)" fill="#E7C033"/>
<rect x="1314.64" y="213.155" width="7.69666" height="87.8452" rx="3.84833" fill="#E7C033"/>
<rect width="7.71002" height="34.57" rx="3.85501" transform="matrix(0.559365 0.828922 -0.827608 0.561306 1343.25 263.013)" fill="#E7C033"/>
<rect width="7.71002" height="28.3468" rx="3.85501" transform="matrix(0.559365 0.828922 -0.827608 0.561307 1337.51 247.216)" fill="#E7C033"/>
<rect width="7.71003" height="34.5707" rx="3.85501" transform="matrix(0.559379 -0.828912 0.827598 0.561321 1289.48 269.404)" fill="#E7C033"/>
<rect width="7.71002" height="28.3462" rx="3.85501" transform="matrix(0.559379 -0.828912 0.827598 0.561321 1294.51 253.675)" fill="#E7C033"/>
<rect width="7.71003" height="14.813" rx="3.85501" transform="matrix(0.559379 -0.828912 0.827598 0.561321 1303.99 238.836)" fill="#E7C033"/>
<rect width="7.71002" height="14.813" rx="3.85501" transform="matrix(0.559379 0.828912 -0.827598 0.561321 1328.09 231.555)" fill="#E7C033"/>
<rect width="7.70012" height="62.2947" rx="3.85006" transform="matrix(0.906493 0.422221 -0.42047 0.907306 1314.19 209.89)" fill="#E7C033"/>
<rect width="7.70012" height="62.2947" rx="3.85006" transform="matrix(0.90649 -0.422228 0.420478 0.907303 1315.83 212.251)" fill="#E7C033"/>
<rect x="1314.64" y="416.155" width="7.69666" height="87.8452" rx="3.84833" fill="#E7C033"/>
<rect width="7.71002" height="34.57" rx="3.85501" transform="matrix(0.559365 0.828922 -0.827608 0.561306 1343.25 466.013)" fill="#E7C033"/>
<rect width="7.71002" height="28.3468" rx="3.85501" transform="matrix(0.559365 0.828922 -0.827608 0.561307 1337.51 450.216)" fill="#E7C033"/>
<rect width="7.71003" height="34.5707" rx="3.85501" transform="matrix(0.559379 -0.828912 0.827598 0.561321 1289.48 472.404)" fill="#E7C033"/>
<rect width="7.71002" height="28.3462" rx="3.85501" transform="matrix(0.559379 -0.828912 0.827598 0.561321 1294.51 456.675)" fill="#E7C033"/>
<rect width="7.71003" height="14.813" rx="3.85501" transform="matrix(0.559379 -0.828912 0.827598 0.561321 1303.99 441.836)" fill="#E7C033"/>
<rect width="7.71002" height="14.813" rx="3.85501" transform="matrix(0.559379 0.828912 -0.827598 0.561321 1328.09 434.555)" fill="#E7C033"/>
<rect width="7.70012" height="62.2947" rx="3.85006" transform="matrix(0.906493 0.422221 -0.42047 0.907306 1314.19 412.89)" fill="#E7C033"/>
<rect width="7.70012" height="62.2947" rx="3.85006" transform="matrix(0.90649 -0.422228 0.420478 0.907303 1315.83 415.251)" fill="#E7C033"/>
<rect x="1311.64" y="619.155" width="7.69666" height="87.8452" rx="3.84833" fill="#E7C033"/>
<rect width="7.71002" height="34.57" rx="3.85501" transform="matrix(0.559365 0.828922 -0.827608 0.561306 1340.25 669.013)" fill="#E7C033"/>
<rect width="7.71002" height="28.3468" rx="3.85501" transform="matrix(0.559365 0.828922 -0.827608 0.561307 1334.51 653.216)" fill="#E7C033"/>
<rect width="7.71003" height="34.5707" rx="3.85501" transform="matrix(0.559379 -0.828912 0.827598 0.561321 1286.48 675.404)" fill="#E7C033"/>
<rect width="7.71002" height="28.3462" rx="3.85501" transform="matrix(0.559379 -0.828912 0.827598 0.561321 1291.51 659.675)" fill="#E7C033"/>
<rect width="7.71003" height="14.813" rx="3.85501" transform="matrix(0.559379 -0.828912 0.827598 0.561321 1300.99 644.836)" fill="#E7C033"/>
<rect width="7.71002" height="14.813" rx="3.85501" transform="matrix(0.559379 0.828912 -0.827598 0.561321 1325.09 637.555)" fill="#E7C033"/>
<rect width="7.70012" height="62.2947" rx="3.85006" transform="matrix(0.906493 0.422221 -0.42047 0.907306 1311.19 615.89)" fill="#E7C033"/>
<rect width="7.70012" height="62.2947" rx="3.85006" transform="matrix(0.90649 -0.422228 0.420478 0.907303 1312.83 618.251)" fill="#E7C033"/>
<rect x="1311.64" y="822.155" width="7.69666" height="87.8452" rx="3.84833" fill="#E7C033"/>
<rect width="7.71002" height="34.57" rx="3.85501" transform="matrix(0.559365 0.828922 -0.827608 0.561306 1340.25 872.013)" fill="#E7C033"/>
<rect width="7.71002" height="28.3468" rx="3.85501" transform="matrix(0.559365 0.828922 -0.827608 0.561307 1334.51 856.216)" fill="#E7C033"/>
<rect width="7.71003" height="34.5707" rx="3.85501" transform="matrix(0.559379 -0.828912 0.827598 0.561321 1286.48 878.404)" fill="#E7C033"/>
<rect width="7.71002" height="28.3462" rx="3.85501" transform="matrix(0.559379 -0.828912 0.827598 0.561321 1291.51 862.675)" fill="#E7C033"/>
<rect width="7.71003" height="14.813" rx="3.85501" transform="matrix(0.559379 -0.828912 0.827598 0.561321 1300.99 847.836)" fill="#E7C033"/>
<rect width="7.71002" height="14.813" rx="3.85501" transform="matrix(0.559379 0.828912 -0.827598 0.561321 1325.09 840.555)" fill="#E7C033"/>
<rect width="7.70012" height="62.2947" rx="3.85006" transform="matrix(0.906493 0.422221 -0.42047 0.907306 1311.19 818.89)" fill="#E7C033"/>
<rect width="7.70012" height="62.2947" rx="3.85006" transform="matrix(0.90649 -0.422228 0.420478 0.907303 1312.83 821.251)" fill="#E7C033"/>
</g>
<defs>
<clipPath id="clip0">
<rect width="1440" height="1024" fill="white"/>
</clipPath>
</defs>
</svg>
