<svg width="106" height="179" viewBox="0 0 106 179" fill="none" xmlns="http://www.w3.org/2000/svg">
<path d="M20.2094 66.5915L50.6366 7.03499C52.8041 2.79245 59.1142 3.69763 60.0017 8.37842L72.6366 75.0207C72.6937 75.3216 72.6853 75.6172 72.5948 75.9098C71.4536 79.6019 62.5566 105.64 39.6476 101.895C16.4232 98.0987 19.581 70.3598 20.0231 67.1689C20.0516 66.9636 20.1151 66.7761 20.2094 66.5915Z" fill="#369324"/>
<path d="M41.7049 68.4586L77.9345 30.7397C81.1419 27.4004 86.7735 29.8383 86.5338 34.4622L83.7805 87.5613C83.7634 87.8927 83.672 88.2025 83.4887 88.479C81.5345 91.4285 68.9511 108.946 50.7926 100.631C32.3401 92.1809 40.191 71.7359 41.3387 69.0062C41.4257 68.7993 41.5495 68.6205 41.7049 68.4586Z" fill="#369324"/>
<path d="M38.1887 82.4505L66.6503 48.8918C69.5321 45.4939 75.0836 47.2776 75.4469 51.7182L79.1066 96.4513C79.1364 96.816 79.0673 97.1792 78.8875 97.4979C77.2249 100.445 67.7246 115.512 50.2877 109.472C32.4912 103.307 37.0294 85.757 37.8374 83.0801C37.9089 82.8433 38.0287 82.6391 38.1887 82.4505Z" fill="#43AC2F"/>
<path d="M17.7136 93.8107L20.9172 40.5469C21.1774 36.2209 26.4425 34.2519 29.4775 37.3456L67.6741 76.2821C67.9475 76.5607 68.1332 76.9118 68.1889 77.2982C68.7261 81.0287 70.6236 101.454 49.2221 108.884C27.3912 116.464 18.9629 97.4522 17.8257 94.5697C17.7289 94.3244 17.6977 94.0739 17.7136 93.8107Z" fill="#43AC2F"/>
<path d="M18.8854 119.762L11.2464 102.575C9.3702 98.3532 13.7323 94.0631 17.9219 96.0093L35.2958 104.08C35.5985 104.221 35.8599 104.432 36.0426 104.711C37.3275 106.676 42.2183 115.185 35.3338 121.677C28.2741 128.335 20.6905 121.688 19.2627 120.312C19.1002 120.155 18.9771 119.969 18.8854 119.762Z" fill="#65DA4E"/>
<path d="M59.9914 103.715L81.9784 91.0868C85.9842 88.786 90.7006 92.6832 89.196 97.0509L80.7909 121.452C80.6821 121.767 80.503 122.045 80.2452 122.257C78.2264 123.919 68.522 131.101 59.7968 123.577C50.8786 115.887 58.1133 105.88 59.4827 104.146C59.6226 103.969 59.7956 103.828 59.9914 103.715Z" fill="#65DA4E"/>
<path d="M28.6339 109.239L24.4285 65.4372C24.0027 61.0022 29.1525 58.2671 32.5885 61.1033L67.2025 89.6746C67.4847 89.9076 67.6969 90.2104 67.7999 90.5615C68.7528 93.8082 72.9266 111.124 56.4381 119.41C39.6096 127.867 30.1953 112.375 28.8402 109.929C28.7203 109.713 28.6575 109.485 28.6339 109.239Z" fill="#65DA4E"/>
<path d="M16 130H85L79.0098 162.613C77.2662 172.106 68.9911 179 59.3389 179H43.008C33.6502 179 25.5434 172.511 23.4936 163.381L16 130Z" fill="#9800CF"/>
<mask id="mask0" mask-type="alpha" maskUnits="userSpaceOnUse" x="30" y="123" width="97" height="98">
<rect x="30" y="181.199" width="76.5941" height="61" transform="rotate(-49.45 30 181.199)" fill="black" fill-opacity="0.1"/>
</mask>
<g mask="url(#mask0)">
<path d="M16 130H85L79.0098 162.613C77.2662 172.106 68.9911 179 59.3389 179H43.008C33.6502 179 25.5434 172.511 23.4936 163.381L16 130Z" fill="black"/>
</g>
<rect x="10" y="117" width="80" height="13" rx="6.5" fill="#9800CF"/>
<g filter="url(#filter0_b)">
<rect x="28" y="126" width="57" height="8" rx="4" fill="#7501AD"/>
</g>
<rect x="10" y="114" width="28" height="6" rx="3" fill="#D843FF"/>
<path d="M15 119.56C15 116.489 12.3311 113.885 9.71953 115.5C8.13457 116.48 6.85705 117.882 6.03149 119.547C5.20593 121.211 4.86528 123.073 5.04809 124.92C5.12375 125.685 5.28785 126.434 5.53477 127.155C6.11674 128.853 8.21882 129.12 9.64588 128.031L10.7288 127.205C11.5693 126.564 11.6585 125.335 11.5544 124.283C11.4911 123.644 11.609 122.999 11.8949 122.423C12.1807 121.846 12.623 121.361 13.1718 121.022C13.7205 120.682 14.3538 120.502 15 120.502V119.56Z" fill="#D843FF"/>
<circle cx="30" cy="98" r="8" fill="#99F253"/>
<circle cx="63" cy="97" r="8" fill="#99F253"/>
<circle cx="31" cy="93" r="7" fill="#06160C"/>
<circle cx="64" cy="93" r="7" fill="#06160C"/>
<circle cx="32" cy="91" r="3" fill="#6200C7"/>
<circle cx="65" cy="91" r="3" fill="#6200C7"/>
<path d="M59.249 109.559C53.8361 117.47 42.1639 117.47 36.751 109.559V109.559C36.0083 108.474 36.7856 107 38.1009 107H57.8991C59.2144 107 59.9917 108.474 59.249 109.559V109.559Z" fill="#99F253"/>
<path d="M59.249 107.559C53.8361 115.47 42.1639 115.47 36.751 107.559V107.559C36.0083 106.474 36.7856 105 38.1009 105H57.8991C59.2144 105 59.9917 106.474 59.249 107.559V107.559Z" fill="#06160C"/>
<rect x="45" y="106" width="6" height="3" rx="1.5" fill="#EEECEC"/>
<defs>
<filter id="filter0_b" x="24" y="122" width="65" height="16" filterUnits="userSpaceOnUse" color-interpolation-filters="sRGB">
<feFlood flood-opacity="0" result="BackgroundImageFix"/>
<feGaussianBlur in="BackgroundImage" stdDeviation="2"/>
<feComposite in2="SourceAlpha" operator="in" result="effect1_backgroundBlur"/>
<feBlend mode="normal" in="SourceGraphic" in2="effect1_backgroundBlur" result="shape"/>
</filter>
</defs>
</svg>
